  0
SECTION
  2
BLOCKS
  0
ENDSEC
  0
SECTION
  2
ENTITIES
  0
LINE
  8
0
 10
41.5529
 20
-30.2955
 11
43
 21
-29.6962
  0
LINE
  8
0
 10
43
 20
-29.6962
 11
44.2426
 21
-28.7426
  0
LINE
  8
0
 10
44.2426
 20
-28.7426
 11
45.1962
 21
-27.5
  0
LINE
  8
0
 10
45.1962
 20
-27.5
 11
45.7955
 21
-26.0529
  0
LINE
  8
0
 10
45.7955
 20
-26.0529
 11
46
 21
-24.5
  0
LINE
  8
0
 10
46
 20
-24.5
 11
46
 21
24.5
  0
LINE
  8
0
 10
46
 20
24.5
 11
45.7955
 21
26.0529
  0
LINE
  8
0
 10
45.7955
 20
26.0529
 11
45.1962
 21
27.5
  0
LINE
  8
0
 10
45.1962
 20
27.5
 11
44.2426
 21
28.7426
  0
LINE
  8
0
 10
44.2426
 20
28.7426
 11
43
 21
29.6962
  0
LINE
  8
0
 10
43
 20
29.6962
 11
41.5529
 21
30.2955
  0
LINE
  8
0
 10
41.5529
 20
30.2955
 11
40
 21
30.5
  0
LINE
  8
0
 10
40
 20
30.5
 11
-40
 21
30.5
  0
LINE
  8
0
 10
-40
 20
30.5
 11
-41.5529
 21
30.2955
  0
LINE
  8
0
 10
-41.5529
 20
30.2955
 11
-43
 21
29.6962
  0
LINE
  8
0
 10
-43
 20
29.6962
 11
-44.2426
 21
28.7426
  0
LINE
  8
0
 10
-44.2426
 20
28.7426
 11
-45.1962
 21
27.5
  0
LINE
  8
0
 10
-45.1962
 20
27.5
 11
-45.7955
 21
26.0529
  0
LINE
  8
0
 10
-45.7955
 20
26.0529
 11
-46
 21
24.5
  0
LINE
  8
0
 10
-46
 20
24.5
 11
-46
 21
-24.5
  0
LINE
  8
0
 10
-46
 20
-24.5
 11
-45.7955
 21
-26.0529
  0
LINE
  8
0
 10
-45.7955
 20
-26.0529
 11
-45.1962
 21
-27.5
  0
LINE
  8
0
 10
-45.1962
 20
-27.5
 11
-44.2426
 21
-28.7426
  0
LINE
  8
0
 10
-44.2426
 20
-28.7426
 11
-43
 21
-29.6962
  0
LINE
  8
0
 10
-43
 20
-29.6962
 11
-41.5529
 21
-30.2955
  0
LINE
  8
0
 10
-41.5529
 20
-30.2955
 11
-40
 21
-30.5
  0
LINE
  8
0
 10
-40
 20
-30.5
 11
40
 21
-30.5
  0
LINE
  8
0
 10
40
 20
-30.5
 11
41.5529
 21
-30.2955
  0
LINE
  8
0
 10
35.5859
 20
18.9545
 11
35.2
 21
19.1143
  0
LINE
  8
0
 10
35.2
 20
19.1143
 11
34.8686
 21
19.3686
  0
LINE
  8
0
 10
34.8686
 20
19.3686
 11
34.6143
 21
19.7
  0
LINE
  8
0
 10
34.6143
 20
19.7
 11
34.4545
 21
20.0859
  0
LINE
  8
0
 10
34.4545
 20
20.0859
 11
34.4
 21
20.5
  0
LINE
  8
0
 10
34.4
 20
20.5
 11
34.4545
 21
20.9141
  0
LINE
  8
0
 10
34.4545
 20
20.9141
 11
34.6143
 21
21.3
  0
LINE
  8
0
 10
34.6143
 20
21.3
 11
34.8686
 21
21.6314
  0
LINE
  8
0
 10
34.8686
 20
21.6314
 11
35.2
 21
21.8856
  0
LINE
  8
0
 10
35.2
 20
21.8856
 11
35.5859
 21
22.0455
  0
LINE
  8
0
 10
35.5859
 20
22.0455
 11
36
 21
22.1
  0
LINE
  8
0
 10
36
 20
22.1
 11
36.4141
 21
22.0455
  0
LINE
  8
0
 10
36.4141
 20
22.0455
 11
36.8
 21
21.8856
  0
LINE
  8
0
 10
36.8
 20
21.8856
 11
37.1314
 21
21.6314
  0
LINE
  8
0
 10
37.1314
 20
21.6314
 11
37.3856
 21
21.3
  0
LINE
  8
0
 10
37.3856
 20
21.3
 11
37.5455
 21
20.9141
  0
LINE
  8
0
 10
37.5455
 20
20.9141
 11
37.6
 21
20.5
  0
LINE
  8
0
 10
37.6
 20
20.5
 11
37.5455
 21
20.0859
  0
LINE
  8
0
 10
37.5455
 20
20.0859
 11
37.3856
 21
19.7
  0
LINE
  8
0
 10
37.3856
 20
19.7
 11
37.1314
 21
19.3686
  0
LINE
  8
0
 10
37.1314
 20
19.3686
 11
36.8
 21
19.1143
  0
LINE
  8
0
 10
36.8
 20
19.1143
 11
36.4141
 21
18.9545
  0
LINE
  8
0
 10
36.4141
 20
18.9545
 11
36
 21
18.9
  0
LINE
  8
0
 10
36
 20
18.9
 11
35.5859
 21
18.9545
  0
LINE
  8
0
 10
-22.3241
 20
17.9545
 11
-22.71
 21
18.1143
  0
LINE
  8
0
 10
-22.71
 20
18.1143
 11
-23.0414
 21
18.3686
  0
LINE
  8
0
 10
-23.0414
 20
18.3686
 11
-23.2956
 21
18.7
  0
LINE
  8
0
 10
-23.2956
 20
18.7
 11
-23.4555
 21
19.0859
  0
LINE
  8
0
 10
-23.4555
 20
19.0859
 11
-23.51
 21
19.5
  0
LINE
  8
0
 10
-23.51
 20
19.5
 11
-23.4555
 21
19.9141
  0
LINE
  8
0
 10
-23.4555
 20
19.9141
 11
-23.2956
 21
20.3
  0
LINE
  8
0
 10
-23.2956
 20
20.3
 11
-23.0414
 21
20.6314
  0
LINE
  8
0
 10
-23.0414
 20
20.6314
 11
-22.71
 21
20.8856
  0
LINE
  8
0
 10
-22.71
 20
20.8856
 11
-22.3241
 21
21.0455
  0
LINE
  8
0
 10
-22.3241
 20
21.0455
 11
-21.91
 21
21.1
  0
LINE
  8
0
 10
-21.91
 20
21.1
 11
-21.4959
 21
21.0455
  0
LINE
  8
0
 10
-21.4959
 20
21.0455
 11
-21.11
 21
20.8856
  0
LINE
  8
0
 10
-21.11
 20
20.8856
 11
-20.7786
 21
20.6314
  0
LINE
  8
0
 10
-20.7786
 20
20.6314
 11
-20.5244
 21
20.3
  0
LINE
  8
0
 10
-20.5244
 20
20.3
 11
-20.3645
 21
19.9141
  0
LINE
  8
0
 10
-20.3645
 20
19.9141
 11
-20.31
 21
19.5
  0
LINE
  8
0
 10
-20.31
 20
19.5
 11
-20.3645
 21
19.0859
  0
LINE
  8
0
 10
-20.3645
 20
19.0859
 11
-20.5244
 21
18.7
  0
LINE
  8
0
 10
-20.5244
 20
18.7
 11
-20.7786
 21
18.3686
  0
LINE
  8
0
 10
-20.7786
 20
18.3686
 11
-21.11
 21
18.1143
  0
LINE
  8
0
 10
-21.11
 20
18.1143
 11
-21.4959
 21
17.9545
  0
LINE
  8
0
 10
-21.4959
 20
17.9545
 11
-21.91
 21
17.9
  0
LINE
  8
0
 10
-21.91
 20
17.9
 11
-22.3241
 21
17.9545
  0
LINE
  8
0
 10
15.4959
 20
17.9545
 11
15.11
 21
18.1143
  0
LINE
  8
0
 10
15.11
 20
18.1143
 11
14.7786
 21
18.3686
  0
LINE
  8
0
 10
14.7786
 20
18.3686
 11
14.5244
 21
18.7
  0
LINE
  8
0
 10
14.5244
 20
18.7
 11
14.3645
 21
19.0859
  0
LINE
  8
0
 10
14.3645
 20
19.0859
 11
14.31
 21
19.5
  0
LINE
  8
0
 10
14.31
 20
19.5
 11
14.3645
 21
19.9141
  0
LINE
  8
0
 10
14.3645
 20
19.9141
 11
14.5244
 21
20.3
  0
LINE
  8
0
 10
14.5244
 20
20.3
 11
14.7786
 21
20.6314
  0
LINE
  8
0
 10
14.7786
 20
20.6314
 11
15.11
 21
20.8856
  0
LINE
  8
0
 10
15.11
 20
20.8856
 11
15.4959
 21
21.0455
  0
LINE
  8
0
 10
15.4959
 20
21.0455
 11
15.91
 21
21.1
  0
LINE
  8
0
 10
15.91
 20
21.1
 11
16.3241
 21
21.0455
  0
LINE
  8
0
 10
16.3241
 20
21.0455
 11
16.71
 21
20.8856
  0
LINE
  8
0
 10
16.71
 20
20.8856
 11
17.0414
 21
20.6314
  0
LINE
  8
0
 10
17.0414
 20
20.6314
 11
17.2956
 21
20.3
  0
LINE
  8
0
 10
17.2956
 20
20.3
 11
17.4555
 21
19.9141
  0
LINE
  8
0
 10
17.4555
 20
19.9141
 11
17.51
 21
19.5
  0
LINE
  8
0
 10
17.51
 20
19.5
 11
17.4555
 21
19.0859
  0
LINE
  8
0
 10
17.4555
 20
19.0859
 11
17.2956
 21
18.7
  0
LINE
  8
0
 10
17.2956
 20
18.7
 11
17.0414
 21
18.3686
  0
LINE
  8
0
 10
17.0414
 20
18.3686
 11
16.71
 21
18.1143
  0
LINE
  8
0
 10
16.71
 20
18.1143
 11
16.3241
 21
17.9545
  0
LINE
  8
0
 10
16.3241
 20
17.9545
 11
15.91
 21
17.9
  0
LINE
  8
0
 10
15.91
 20
17.9
 11
15.4959
 21
17.9545
  0
LINE
  8
0
 10
-35.4141
 20
15.4545
 11
-35.8
 21
15.6143
  0
LINE
  8
0
 10
-35.8
 20
15.6143
 11
-36.1314
 21
15.8686
  0
LINE
  8
0
 10
-36.1314
 20
15.8686
 11
-36.3856
 21
16.2
  0
LINE
  8
0
 10
-36.3856
 20
16.2
 11
-36.5455
 21
16.5859
  0
LINE
  8
0
 10
-36.5455
 20
16.5859
 11
-36.6
 21
17
  0
LINE
  8
0
 10
-36.6
 20
17
 11
-36.5455
 21
17.4141
  0
LINE
  8
0
 10
-36.5455
 20
17.4141
 11
-36.3856
 21
17.8
  0
LINE
  8
0
 10
-36.3856
 20
17.8
 11
-36.1314
 21
18.1314
  0
LINE
  8
0
 10
-36.1314
 20
18.1314
 11
-35.8
 21
18.3856
  0
LINE
  8
0
 10
-35.8
 20
18.3856
 11
-35.4141
 21
18.5455
  0
LINE
  8
0
 10
-35.4141
 20
18.5455
 11
-35
 21
18.6
  0
LINE
  8
0
 10
-35
 20
18.6
 11
-34.5859
 21
18.5455
  0
LINE
  8
0
 10
-34.5859
 20
18.5455
 11
-34.2
 21
18.3856
  0
LINE
  8
0
 10
-34.2
 20
18.3856
 11
-33.8686
 21
18.1314
  0
LINE
  8
0
 10
-33.8686
 20
18.1314
 11
-33.6143
 21
17.8
  0
LINE
  8
0
 10
-33.6143
 20
17.8
 11
-33.4545
 21
17.4141
  0
LINE
  8
0
 10
-33.4545
 20
17.4141
 11
-33.4
 21
17
  0
LINE
  8
0
 10
-33.4
 20
17
 11
-33.4545
 21
16.5859
  0
LINE
  8
0
 10
-33.4545
 20
16.5859
 11
-33.6143
 21
16.2
  0
LINE
  8
0
 10
-33.6143
 20
16.2
 11
-33.8686
 21
15.8686
  0
LINE
  8
0
 10
-33.8686
 20
15.8686
 11
-34.2
 21
15.6143
  0
LINE
  8
0
 10
-34.2
 20
15.6143
 11
-34.5859
 21
15.4545
  0
LINE
  8
0
 10
-34.5859
 20
15.4545
 11
-35
 21
15.4
  0
LINE
  8
0
 10
-35
 20
15.4
 11
-35.4141
 21
15.4545
  0
LINE
  8
0
 10
-35.4141
 20
-18.5455
 11
-35.8
 21
-18.3856
  0
LINE
  8
0
 10
-35.8
 20
-18.3856
 11
-36.1314
 21
-18.1314
  0
LINE
  8
0
 10
-36.1314
 20
-18.1314
 11
-36.3856
 21
-17.8
  0
LINE
  8
0
 10
-36.3856
 20
-17.8
 11
-36.5455
 21
-17.4141
  0
LINE
  8
0
 10
-36.5455
 20
-17.4141
 11
-36.6
 21
-17
  0
LINE
  8
0
 10
-36.6
 20
-17
 11
-36.5455
 21
-16.5859
  0
LINE
  8
0
 10
-36.5455
 20
-16.5859
 11
-36.3856
 21
-16.2
  0
LINE
  8
0
 10
-36.3856
 20
-16.2
 11
-36.1314
 21
-15.8686
  0
LINE
  8
0
 10
-36.1314
 20
-15.8686
 11
-35.8
 21
-15.6143
  0
LINE
  8
0
 10
-35.8
 20
-15.6143
 11
-35.4141
 21
-15.4545
  0
LINE
  8
0
 10
-35.4141
 20
-15.4545
 11
-35
 21
-15.4
  0
LINE
  8
0
 10
-35
 20
-15.4
 11
-34.5859
 21
-15.4545
  0
LINE
  8
0
 10
-34.5859
 20
-15.4545
 11
-34.2
 21
-15.6143
  0
LINE
  8
0
 10
-34.2
 20
-15.6143
 11
-33.8686
 21
-15.8686
  0
LINE
  8
0
 10
-33.8686
 20
-15.8686
 11
-33.6143
 21
-16.2
  0
LINE
  8
0
 10
-33.6143
 20
-16.2
 11
-33.4545
 21
-16.5859
  0
LINE
  8
0
 10
-33.4545
 20
-16.5859
 11
-33.4
 21
-17
  0
LINE
  8
0
 10
-33.4
 20
-17
 11
-33.4545
 21
-17.4141
  0
LINE
  8
0
 10
-33.4545
 20
-17.4141
 11
-33.6143
 21
-17.8
  0
LINE
  8
0
 10
-33.6143
 20
-17.8
 11
-33.8686
 21
-18.1314
  0
LINE
  8
0
 10
-33.8686
 20
-18.1314
 11
-34.2
 21
-18.3856
  0
LINE
  8
0
 10
-34.2
 20
-18.3856
 11
-34.5859
 21
-18.5455
  0
LINE
  8
0
 10
-34.5859
 20
-18.5455
 11
-35
 21
-18.6
  0
LINE
  8
0
 10
-35
 20
-18.6
 11
-35.4141
 21
-18.5455
  0
LINE
  8
0
 10
12.0859
 20
-21.0455
 11
11.7
 21
-20.8856
  0
LINE
  8
0
 10
11.7
 20
-20.8856
 11
11.3686
 21
-20.6314
  0
LINE
  8
0
 10
11.3686
 20
-20.6314
 11
11.1143
 21
-20.3
  0
LINE
  8
0
 10
11.1143
 20
-20.3
 11
10.9545
 21
-19.9141
  0
LINE
  8
0
 10
10.9545
 20
-19.9141
 11
10.9
 21
-19.5
  0
LINE
  8
0
 10
10.9
 20
-19.5
 11
10.9545
 21
-19.0859
  0
LINE
  8
0
 10
10.9545
 20
-19.0859
 11
11.1143
 21
-18.7
  0
LINE
  8
0
 10
11.1143
 20
-18.7
 11
11.3686
 21
-18.3686
  0
LINE
  8
0
 10
11.3686
 20
-18.3686
 11
11.7
 21
-18.1143
  0
LINE
  8
0
 10
11.7
 20
-18.1143
 11
12.0859
 21
-17.9545
  0
LINE
  8
0
 10
12.0859
 20
-17.9545
 11
12.5
 21
-17.9
  0
LINE
  8
0
 10
12.5
 20
-17.9
 11
12.9141
 21
-17.9545
  0
LINE
  8
0
 10
12.9141
 20
-17.9545
 11
13.3
 21
-18.1143
  0
LINE
  8
0
 10
13.3
 20
-18.1143
 11
13.6314
 21
-18.3686
  0
LINE
  8
0
 10
13.6314
 20
-18.3686
 11
13.8856
 21
-18.7
  0
LINE
  8
0
 10
13.8856
 20
-18.7
 11
14.0455
 21
-19.0859
  0
LINE
  8
0
 10
14.0455
 20
-19.0859
 11
14.1
 21
-19.5
  0
LINE
  8
0
 10
14.1
 20
-19.5
 11
14.0455
 21
-19.9141
  0
LINE
  8
0
 10
14.0455
 20
-19.9141
 11
13.8856
 21
-20.3
  0
LINE
  8
0
 10
13.8856
 20
-20.3
 11
13.6314
 21
-20.6314
  0
LINE
  8
0
 10
13.6314
 20
-20.6314
 11
13.3
 21
-20.8856
  0
LINE
  8
0
 10
13.3
 20
-20.8856
 11
12.9141
 21
-21.0455
  0
LINE
  8
0
 10
12.9141
 20
-21.0455
 11
12.5
 21
-21.1
  0
LINE
  8
0
 10
12.5
 20
-21.1
 11
12.0859
 21
-21.0455
  0
LINE
  8
0
 10
-21.9141
 20
-21.0455
 11
-22.3
 21
-20.8856
  0
LINE
  8
0
 10
-22.3
 20
-20.8856
 11
-22.6314
 21
-20.6314
  0
LINE
  8
0
 10
-22.6314
 20
-20.6314
 11
-22.8856
 21
-20.3
  0
LINE
  8
0
 10
-22.8856
 20
-20.3
 11
-23.0455
 21
-19.9141
  0
LINE
  8
0
 10
-23.0455
 20
-19.9141
 11
-23.1
 21
-19.5
  0
LINE
  8
0
 10
-23.1
 20
-19.5
 11
-23.0455
 21
-19.0859
  0
LINE
  8
0
 10
-23.0455
 20
-19.0859
 11
-22.8856
 21
-18.7
  0
LINE
  8
0
 10
-22.8856
 20
-18.7
 11
-22.6314
 21
-18.3686
  0
LINE
  8
0
 10
-22.6314
 20
-18.3686
 11
-22.3
 21
-18.1143
  0
LINE
  8
0
 10
-22.3
 20
-18.1143
 11
-21.9141
 21
-17.9545
  0
LINE
  8
0
 10
-21.9141
 20
-17.9545
 11
-21.5
 21
-17.9
  0
LINE
  8
0
 10
-21.5
 20
-17.9
 11
-21.0859
 21
-17.9545
  0
LINE
  8
0
 10
-21.0859
 20
-17.9545
 11
-20.7
 21
-18.1143
  0
LINE
  8
0
 10
-20.7
 20
-18.1143
 11
-20.3686
 21
-18.3686
  0
LINE
  8
0
 10
-20.3686
 20
-18.3686
 11
-20.1143
 21
-18.7
  0
LINE
  8
0
 10
-20.1143
 20
-18.7
 11
-19.9545
 21
-19.0859
  0
LINE
  8
0
 10
-19.9545
 20
-19.0859
 11
-19.9
 21
-19.5
  0
LINE
  8
0
 10
-19.9
 20
-19.5
 11
-19.9545
 21
-19.9141
  0
LINE
  8
0
 10
-19.9545
 20
-19.9141
 11
-20.1143
 21
-20.3
  0
LINE
  8
0
 10
-20.1143
 20
-20.3
 11
-20.3686
 21
-20.6314
  0
LINE
  8
0
 10
-20.3686
 20
-20.6314
 11
-20.7
 21
-20.8856
  0
LINE
  8
0
 10
-20.7
 20
-20.8856
 11
-21.0859
 21
-21.0455
  0
LINE
  8
0
 10
-21.0859
 20
-21.0455
 11
-21.5
 21
-21.1
  0
LINE
  8
0
 10
-21.5
 20
-21.1
 11
-21.9141
 21
-21.0455
  0
LINE
  8
0
 10
35.5859
 20
-22.0455
 11
35.2
 21
-21.8856
  0
LINE
  8
0
 10
35.2
 20
-21.8856
 11
34.8686
 21
-21.6314
  0
LINE
  8
0
 10
34.8686
 20
-21.6314
 11
34.6143
 21
-21.3
  0
LINE
  8
0
 10
34.6143
 20
-21.3
 11
34.4545
 21
-20.9141
  0
LINE
  8
0
 10
34.4545
 20
-20.9141
 11
34.4
 21
-20.5
  0
LINE
  8
0
 10
34.4
 20
-20.5
 11
34.4545
 21
-20.0859
  0
LINE
  8
0
 10
34.4545
 20
-20.0859
 11
34.6143
 21
-19.7
  0
LINE
  8
0
 10
34.6143
 20
-19.7
 11
34.8686
 21
-19.3686
  0
LINE
  8
0
 10
34.8686
 20
-19.3686
 11
35.2
 21
-19.1143
  0
LINE
  8
0
 10
35.2
 20
-19.1143
 11
35.5859
 21
-18.9545
  0
LINE
  8
0
 10
35.5859
 20
-18.9545
 11
36
 21
-18.9
  0
LINE
  8
0
 10
36
 20
-18.9
 11
36.4141
 21
-18.9545
  0
LINE
  8
0
 10
36.4141
 20
-18.9545
 11
36.8
 21
-19.1143
  0
LINE
  8
0
 10
36.8
 20
-19.1143
 11
37.1314
 21
-19.3686
  0
LINE
  8
0
 10
37.1314
 20
-19.3686
 11
37.3856
 21
-19.7
  0
LINE
  8
0
 10
37.3856
 20
-19.7
 11
37.5455
 21
-20.0859
  0
LINE
  8
0
 10
37.5455
 20
-20.0859
 11
37.6
 21
-20.5
  0
LINE
  8
0
 10
37.6
 20
-20.5
 11
37.5455
 21
-20.9141
  0
LINE
  8
0
 10
37.5455
 20
-20.9141
 11
37.3856
 21
-21.3
  0
LINE
  8
0
 10
37.3856
 20
-21.3
 11
37.1314
 21
-21.6314
  0
LINE
  8
0
 10
37.1314
 20
-21.6314
 11
36.8
 21
-21.8856
  0
LINE
  8
0
 10
36.8
 20
-21.8856
 11
36.4141
 21
-22.0455
  0
LINE
  8
0
 10
36.4141
 20
-22.0455
 11
36
 21
-22.1
  0
LINE
  8
0
 10
36
 20
-22.1
 11
35.5859
 21
-22.0455
  0
ENDSEC
  0
SECTION
  2
OBJECTS
  0
DICTIONARY
  0
ENDSEC
  0
EOF
